Coordinates
version=1
nRows=18
nColumns=63
inDegrees=yes

Units are S.I. units (second, meters, Newtons, ...)
If the header above contains a line with 'inDegrees', this indicates whether rotational values are in degrees (yes) or radians (no).

endheader
time	pelvis_tilt	pelvis_list	pelvis_rotation	pelvis_tx	pelvis_ty	pelvis_tz	hip_flexion_r	hip_adduction_r	hip_rotation_r	knee_angle_r	knee_angle_r_beta	ankle_angle_r	subtalar_angle_r	mtp_angle_r	hip_flexion_l	hip_adduction_l	hip_rotation_l	knee_angle_l	knee_angle_l_beta	ankle_angle_l	subtalar_angle_l	mtp_angle_l	L5_S1_Flex_Ext	L5_S1_Lat_Bending	L5_S1_axial_rotation	L4_L5_Flex_Ext	L4_L5_Lat_Bending	L4_L5_axial_rotation	L3_L4_Flex_Ext	L3_L4_Lat_Bending	L3_L4_axial_rotation	L2_L3_Flex_Ext	L2_L3_Lat_Bending	L2_L3_axial_rotation	L1_L2_Flex_Ext	L1_L2_Lat_Bending	L1_L2_axial_rotation	L1_T12_Flex_Ext	L1_T12_Lat_Bending	L1_T12_axial_rotation	Abs_r3	Abs_r2	Abs_r1	Abs_t1	Abs_t2	neck_flexion	neck_bending	neck_rotation	arm_flex_r	arm_add_r	arm_rot_r	elbow_flex_r	pro_sup_r	wrist_flex_r	wrist_dev_r	arm_flex_l	arm_add_l	arm_rot_l	elbow_flex_l	pro_sup_l	wrist_flex_l	wrist_dev_l
0.915254	-0.245761	-2.101845	87.774724	0.244485	0.895043	0.682524	8.412178	-0.832238	-3.193466	14.327502	0.250062	33.754767	0.275304	0.000000	6.650213	3.483730	11.598187	9.774052	0.170589	26.224197	-15.211794	0.000000	0.118734	-0.033014	1.455415	0.220501	-0.043908	1.546379	0.195069	-0.080269	1.546379	0.135701	-0.080269	1.273488	0.110257	-0.067322	1.182525	0.067845	-0.051138	1.091562	0.848107	-0.373457	8.094584	0.000000	0.000000	27.626372	-0.720818	0.686463	1.341724	-15.695102	35.942543	31.795917	62.886457	-8.396401	0.215708	22.244822	-8.004762	126.096110	15.854156	32.956642	-9.505770	-1.903900
0.932203	-0.041702	-2.183129	88.089082	0.243687	0.894041	0.681708	8.781830	-0.637693	-3.096143	14.793343	0.258193	34.370270	-0.234088	0.000000	6.851449	3.421947	12.374710	9.934459	0.173389	26.720986	-15.482892	0.000000	0.115321	-0.002911	1.390688	0.214162	-0.003872	1.477606	0.189460	-0.007079	1.477606	0.131800	-0.007079	1.216852	0.107087	-0.005937	1.129934	0.065894	-0.004510	1.043016	0.823723	-0.032934	7.734588	0.000000	0.000000	27.564800	-0.612784	0.685287	0.755944	-15.956691	35.847917	31.449627	61.325311	-8.457021	0.042102	21.246197	-8.127212	126.668177	15.001278	31.817826	-9.011002	-2.557770
0.949153	0.140934	-2.310015	88.412886	0.242893	0.892761	0.681020	9.261690	-0.483171	-3.080911	15.343253	0.267790	35.080738	-0.647527	0.000000	7.180404	3.399484	13.108157	10.215574	0.178295	27.368825	-15.742875	0.000000	0.112000	0.024754	1.314968	0.207995	0.032922	1.397154	0.184004	0.060186	1.397154	0.128005	0.060186	1.150597	0.104003	0.050477	1.068412	0.063997	0.038343	0.986226	0.800003	0.280017	7.313458	0.000000	0.000000	27.504125	-0.325659	0.831396	0.269496	-16.216560	35.787444	31.115918	60.080071	-8.520441	0.012860	20.181774	-8.220101	127.028772	14.073709	30.087781	-8.453449	-3.325626
0.966102	0.296910	-2.480840	88.735204	0.242108	0.891184	0.680498	9.856481	-0.379450	-3.152473	15.980726	0.278916	35.897642	-0.924380	0.000000	7.660174	3.421731	13.758817	10.651161	0.185898	28.181770	-15.923056	0.000000	0.108211	0.049835	1.229650	0.200958	0.066280	1.306503	0.177779	0.121168	1.306503	0.123674	0.121168	1.075944	0.100484	0.101623	0.999091	0.061832	0.077194	0.922237	0.772938	0.563742	6.838944	0.000000	0.000000	27.434992	0.107828	1.117604	-0.063584	-16.484178	35.989558	30.735103	59.133569	-8.614200	0.022948	19.084163	-8.284711	127.250589	13.087166	27.853180	-7.844829	-4.223363
0.983051	0.427871	-2.685476	89.043986	0.241335	0.889294	0.680180	10.559729	-0.325757	-3.302089	16.702198	0.291508	36.821111	-1.053408	0.000000	8.309570	3.478053	14.259777	11.280918	0.196889	29.174602	-15.911825	0.000000	0.102476	0.073363	1.137573	0.190308	0.097573	1.208671	0.168357	0.178376	1.208671	0.117119	0.178376	0.995376	0.095159	0.149603	0.924278	0.058555	0.113640	0.853180	0.731974	0.829901	6.326839	0.000000	0.000000	27.354173	0.642664	1.549704	-0.273379	-16.740468	36.207164	30.302318	58.899581	-8.659345	0.118544	17.992206	-8.344113	127.093014	12.147561	25.354069	-7.277552	-5.283057
1.000000	0.532776	-2.923864	89.303347	0.240571	0.887063	0.680108	11.386198	-0.301852	-3.364116	17.515220	0.305698	37.813333	-1.227891	0.000000	9.149250	3.582910	14.641990	12.140812	0.211897	30.314096	-15.775356	0.000000	0.095787	0.096424	1.044432	0.177887	0.128244	1.109709	0.157369	0.234446	1.109709	0.109475	0.234446	0.913878	0.088948	0.196628	0.848601	0.054733	0.149361	0.783324	0.684200	1.090770	5.808817	0.000000	0.000000	27.255760	1.211253	2.105634	-0.298306	-17.039410	36.837287	29.769535	58.832744	-8.738192	0.120697	17.003979	-8.356592	127.256575	11.269715	22.034116	-6.830739	-6.649004
1.016949	0.642621	-3.196279	89.514387	0.239775	0.884479	0.680284	12.328501	-0.301732	-3.476160	18.408600	0.321291	38.877998	-1.255929	0.000000	10.195274	3.696487	14.860408	13.256226	0.231365	31.606648	-15.417930	0.000000	0.088732	0.124776	0.942043	0.164783	0.165953	1.000920	0.145777	0.303382	1.000920	0.101411	0.303382	0.824287	0.082396	0.254444	0.765410	0.050701	0.193279	0.706532	0.633800	1.411497	5.239358	0.000000	0.000000	27.139162	1.727536	2.870022	-0.166186	-17.345043	37.599901	29.166189	59.456401	-8.795014	0.185132	16.068824	-8.351190	127.153000	10.497023	18.458288	-6.473361	-8.246089
1.033898	0.761018	-3.508202	89.660241	0.238930	0.881522	0.680711	13.399488	-0.310178	-3.565005	19.391891	0.338452	39.981214	-1.227980	0.000000	11.460617	3.819985	14.933597	14.646771	0.255634	33.010076	-14.912114	0.000000	0.081884	0.158692	0.840110	0.152068	0.211060	0.892617	0.134528	0.385843	0.892617	0.093586	0.385843	0.735096	0.076038	0.323604	0.682589	0.046789	0.245813	0.630082	0.584893	1.795151	4.672440	0.000000	0.000000	27.018197	2.145602	3.749284	0.105058	-17.694691	38.552672	28.524187	60.521095	-8.804582	0.179097	15.243651	-8.291876	127.003108	9.848143	14.902809	-6.301175	-9.972920
1.050847	0.915009	-3.832888	89.769701	0.237993	0.878259	0.681386	14.553903	-0.314957	-3.682566	20.448819	0.356899	41.087397	-1.107473	0.000000	12.905304	3.936567	14.885218	16.302773	0.284537	34.492887	-14.272366	0.000000	0.069878	0.201634	0.725590	0.129771	0.268174	0.770939	0.114803	0.490254	0.770939	0.079864	0.490254	0.634891	0.064889	0.411173	0.589542	0.039928	0.312332	0.544192	0.499134	2.280929	4.035512	0.000000	0.000000	26.904210	2.421912	4.804504	0.590322	-18.088195	39.863585	27.826443	61.984704	-8.880384	0.174844	14.515704	-8.154451	126.893434	9.259868	11.541056	-6.294003	-11.744932
1.067797	1.113843	-4.205550	89.820000	0.237031	0.874635	0.682267	15.821841	-0.280188	-3.768778	21.576662	0.376584	42.155593	-0.954461	0.000000	14.545053	4.012433	14.692238	18.201738	0.317680	36.045132	-13.511291	0.000000	0.058439	0.253645	0.614080	0.108527	0.337348	0.652460	0.096010	0.616713	0.652460	0.066790	0.616713	0.537320	0.054267	0.517233	0.498940	0.033392	0.392897	0.460560	0.417425	2.869286	3.415328	0.000000	0.000000	26.813038	2.486258	5.925530	1.168890	-18.515252	41.174490	27.172330	63.649888	-8.969002	0.195173	13.893839	-7.923205	126.891512	8.732506	8.611414	-6.331161	-13.434871
1.084746	1.351733	-4.628309	89.786313	0.236114	0.870650	0.683321	17.201597	-0.188932	-3.784924	22.782064	0.397622	43.168508	-0.789815	0.000000	16.351478	4.032461	14.350063	20.302483	0.354345	37.645506	-12.677822	0.000000	0.047350	0.312822	0.517806	0.087933	0.416053	0.550168	0.077791	0.760596	0.550168	0.054116	0.760596	0.453080	0.043969	0.637907	0.420717	0.027056	0.484561	0.388354	0.338213	3.538706	2.879879	0.000000	0.000000	26.756797	2.321994	7.044142	1.780803	-18.956122	42.307228	26.603710	65.465166	-9.103083	0.224051	13.376400	-7.611562	127.001522	8.257529	6.242893	-6.355392	-15.008693
1.101695	1.634832	-5.108969	89.684294	0.235271	0.866296	0.684518	18.695024	-0.041192	-3.759867	24.071381	0.420125	44.128715	-0.594172	0.000000	18.306819	3.991107	13.910402	22.565124	0.393836	39.264380	-11.829243	0.000000	0.037922	0.378487	0.439727	0.070424	0.503388	0.467210	0.062301	0.920253	0.467210	0.043341	0.920253	0.384761	0.035214	0.771811	0.357278	0.021668	0.586276	0.329796	0.270870	4.281521	2.445632	0.000000	0.000000	26.738638	1.932442	8.104275	2.394603	-19.410997	43.243862	26.148194	67.306219	-9.334753	0.233082	12.954450	-7.245372	127.143670	7.831683	4.473287	-6.318353	-16.464106
1.118644	1.919100	-5.640391	89.492814	0.234614	0.861579	0.685842	20.302720	0.154591	-3.656229	25.463830	0.444428	45.055168	-0.383377	0.000000	20.374398	3.900468	13.375627	24.937010	0.435233	40.876348	-11.010616	0.000000	0.028792	0.443475	0.392380	0.053470	0.589822	0.416904	0.047303	1.078266	0.416904	0.032907	1.078266	0.343332	0.026737	0.904335	0.318809	0.016452	0.686943	0.294285	0.205661	5.016680	2.182300	0.000000	0.000000	26.757552	1.383986	9.078738	2.941778	-19.829001	43.782920	25.818743	69.190535	-9.656863	0.141761	12.647231	-6.877595	127.221857	7.490626	3.240479	-6.266742	-17.786036
1.135593	2.178083	-6.256900	89.243133	0.234155	0.856448	0.687289	22.061456	0.371615	-3.492391	26.967396	0.470670	45.968719	-0.178014	0.000000	22.568542	3.789997	12.800258	27.372070	0.477733	42.440579	-10.262830	0.000000	0.026797	0.503395	0.375232	0.049764	0.669515	0.398684	0.044024	1.223954	0.398684	0.030626	1.223954	0.328328	0.024883	1.026523	0.304876	0.015312	0.779759	0.281424	0.191407	5.694502	2.086925	0.000000	0.000000	26.806142	0.774629	9.973141	3.360263	-20.202038	43.869691	25.657677	71.075305	-10.069529	-0.104595	12.458472	-6.551303	127.113283	7.269611	2.446141	-6.197374	-18.989638
1.152542	2.430959	-6.873237	88.944195	0.233912	0.851029	0.688802	23.862939	0.601508	-3.344334	28.568023	0.498606	46.906096	0.103605	0.000000	24.777575	3.658581	12.265509	29.853402	0.521040	43.943074	-9.645431	0.000000	0.020449	0.558287	0.392238	0.037976	0.742522	0.416753	0.033596	1.357419	0.416753	0.023371	1.357419	0.343209	0.018989	1.138459	0.318694	0.011685	0.864787	0.294179	0.146067	6.315454	2.181513	0.000000	0.000000	26.878306	0.004099	10.545858	3.623485	-20.521625	43.428318	25.683432	72.856791	-10.545627	-0.450432	12.423476	-6.292142	126.619706	7.241278	2.055617	-6.124966	-20.043147
1.169492	2.625726	-7.565787	88.624402	0.233905	0.845248	0.690420	25.788671	0.828137	-3.149311	30.261711	0.528167	47.839587	0.308781	0.000000	27.055242	3.543105	11.778469	32.317939	0.564054	45.331242	-9.162004	0.000000	0.021298	0.602821	0.426911	0.039552	0.801752	0.453593	0.034990	1.465700	0.453593	0.024341	1.465700	0.373547	0.019777	1.229273	0.346866	0.012170	0.933770	0.320184	0.152128	6.819234	2.374353	0.000000	0.000000	26.965391	-0.645596	11.174445	3.754186	-20.781120	42.582757	25.868538	74.568367	-11.037848	-0.963438	12.507491	-6.126493	125.838063	7.345815	1.986758	-6.073422	-20.989468
1.186441	2.766877	-8.278247	88.275070	0.234148	0.839220	0.692100	27.767944	1.046867	-2.931473	32.036947	0.559150	48.775684	0.468027	0.000000	29.319906	3.439397	11.348913	34.744689	0.606409	46.588864	-8.854754	0.000000	0.021049	0.636310	0.484557	0.039090	0.846293	0.514842	0.034581	1.547125	0.514842	0.024057	1.547125	0.423988	0.019546	1.297564	0.393703	0.012027	0.985645	0.363418	0.150350	7.198069	2.694962	0.000000	0.000000	27.067984	-1.245699	11.698973	3.714462	-20.958806	41.142541	26.215945	76.242550	-11.486745	-1.602807	12.759610	-6.082055	124.544918	7.699287	2.387722	-6.131494	-21.816455
1.203390	2.861211	-9.054669	87.927643	0.234611	0.832945	0.693820	29.825119	1.265797	-2.669672	33.863755	0.591034	49.673599	0.482550	0.000000	31.590249	3.344847	10.968358	37.090649	0.647354	47.691612	-8.698263	0.000000	0.025647	0.659989	0.542725	0.047630	0.877786	0.576645	0.042136	1.604698	0.576645	0.029312	1.604698	0.474884	0.023816	1.345850	0.440964	0.014655	1.022323	0.407044	0.183196	7.465931	3.018473	0.000000	0.000000	27.185750	-1.637441	12.336699	3.621855	-21.090302	39.533092	26.664644	77.732334	-11.875420	-2.313542	13.086894	-6.132447	123.098428	8.094181	3.067923	-6.214595	-22.528366
